<svg xmlns="http://www.w3.org/2000/svg" viewBox="0 0 202.71 188.52"><defs><style>.cls-1{font-size:40px;font-family:Rockwell-ExtraBold, Rockwell Extra Bold;font-weight:800;}.cls-1,.cls-3{fill:#50603a;}.cls-2{letter-spacing:-0.13em;}.cls-4{fill:#e6e6d5;}</style></defs><title>Recurso 11</title><g id="Capa_2" data-name="Capa 2"><g id="Capa_1-2" data-name="Capa 1"><text class="cls-1" transform="translate(0 177.72)">Eco<tspan class="cls-2" x="87.52" y="0">F</tspan><tspan x="110.64" y="0">ood</tspan></text><rect class="cls-3" x="30.49" width="141.73" height="141.73" rx="27.23"/><path class="cls-4" d="M71,54.83l3.93,42.71A10.66,10.66,0,0,0,85.61,108.2h35.45a10.67,10.67,0,0,0,10.67-10.66l3.44-42.71ZM80.7,87.11a5.67,5.67,0,0,1,.51-3.5,49,49,0,0,1,3.37-5.09L80.5,74.91H93c1.43,3.6,2.83,7.16,4.24,10.72l-.46.39L93,83.53,85.63,95.6C83.74,93.07,81.48,90.49,80.7,87.11Zm20.56,12c-3.57,0-6.93.1-10.28,0-2.49-.1-3.63-1.86-2.72-4.18a38.07,38.07,0,0,1,2.58-4.78,1.28,1.28,0,0,1,.89-.61c3,0,6,0,9,0a2.3,2.3,0,0,1,.48.18Zm1.6-31.06c0,.11-.19.21-.27.33L97.94,75.6l-7.35-4.83a1,1,0,0,1-.28-1.56c1.58-2.28,3.09-4.61,4.72-6.85,1.33-1.82,2.48-1.91,4-.21s2.54,3.34,3.76,5.05A1.69,1.69,0,0,1,102.86,68.08Zm3.51.88c-1.23-1.94-2.31-4-3.66-5.84a32.66,32.66,0,0,0-3.35-3.44,7.26,7.26,0,0,1,1.53-.26c2.78,0,5.56.15,8.35.22a3.22,3.22,0,0,1,2.86,1.62c.87,1.49,1.75,3,2.56,4.5.43.81.86.94,1.7.53a27.78,27.78,0,0,1,3.13-1.14l.36.53c-.83,1.38-1.66,2.77-2.5,4.15A11.45,11.45,0,0,0,116,72.17c-.73,2.28-2.29,2.43-4.33,2.2-2.52-.29-5.07-.27-8.13-.41a19.06,19.06,0,0,1,2.32-2.13C107.09,71,107.1,70.12,106.37,69Zm17.39,22.19c-1.27,2-2.59,4-3.9,6A3.66,3.66,0,0,1,116.33,99c-1.52-.08-3,0-4.58,0-.13,1.54-.24,2.89-.4,4.69-.78-.84-1.3-1.31-1.71-1.86q-2.7-3.63-5.32-7.32a1.37,1.37,0,0,1-.14-1.2c1.55-2.24,3.17-4.42,4.78-6.61.47-.63,1-1.23,1.49-1.84l.64.37.43,4.48h12.92A10.65,10.65,0,0,1,123.76,91.15Zm-1.34-3.48c-1.67.08-3.64.69-4.94,0s-1.91-2.62-2.8-4c-1-1.56-2-3.14-3.05-4.81,1.41-.74,2.78-1.38,4.06-2.17S118.2,75,119.56,74a13.93,13.93,0,0,1,.88,1.13c1.56,2.64,3.15,5.26,4.63,8S125.35,87.53,122.42,87.67Z"/><rect class="cls-4" x="66.33" y="46.01" width="73.51" height="7.5" rx="3.75"/><path class="cls-4" d="M90,40.07c.67.63,1.4,1.23,2,1.92s1.06,1.39,1.76,2.32c-2.13.16-3.76.6-5.36-1.14-2.89-3.12-6.16-5.89-9.21-8.87a45.67,45.67,0,0,1-3-3.49,2.72,2.72,0,0,0-3.07-.06c-1,.87-2.1,1.74-3.11,2.66-1.54,1.39-1.64,4.61-.11,6,1.73,1.56,3.41,3.25,6,3.43.55,0,1.07.57,1.6.88l-.16.38-5.79.56a.71.71,0,0,1-.47-.14c-2.09-2.05-4.53-3.89-5-7.05a7.71,7.71,0,0,1,1.15-5.85c.19-.27.09-1.13-.12-1.22a5.56,5.56,0,0,0-2.46-.71,6.42,6.42,0,0,1-4.17-1.15,5,5,0,0,1-2-5.65A2.59,2.59,0,0,1,61,21.59c.29.06.56.21.85.26,2,.33,2.09.26,2.51-1.72s1.43-3.3,2.7-3.33c1.84-.05,2.37,1.53,2.91,2.81a9.62,9.62,0,0,1,.21,6.16c-.42,1.69.27,2.37,1.95,2a7.34,7.34,0,0,1,7.8,2.54c1.17,1.41,2.45,2.72,3.93,4.35a36.1,36.1,0,0,0,0-4.1c0-.39-.7-.78-1.15-1a10.4,10.4,0,0,1-5.51-10.67A16.85,16.85,0,0,1,77.56,17l2.89,1.09c1-1.95,1.84-3.84,2.82-5.67.73-1.36,1.2-1.4,2.27-.22a15.11,15.11,0,0,1,1.59,2.15c.47.75.84,1.57,1.28,2.41.63-.2,1.28-.38,1.92-.6s1.09,0,1.27.76c1.07,4.37.9,8.42-2.95,11.51a5.59,5.59,0,0,0-2.32,4.46,1.91,1.91,0,0,1-2,2.12L90,40.11ZM84,27.91c.52-2.76-1.75-7.1-4.56-7.66C79.56,23.6,81.67,25.7,84,27.91Zm.26-12.73c-1.47,3.44-1.39,4,.88,6.19C87,18.65,87,18.06,84.3,15.18Zm5,5a6.3,6.3,0,0,0-2.51,6.93C88.71,25.15,90.38,23.21,89.26,20.14Zm-28,4.19A2.61,2.61,0,0,0,65,26.73C64.24,25.22,62.8,24.88,61.3,24.33Zm5.9-4.53c-1,2.11-.63,3.95.76,5.18A7.26,7.26,0,0,0,67.2,19.8Z"/><path class="cls-4" d="M90,40.11A8.87,8.87,0,0,1,92,28.51a8.1,8.1,0,0,1,2.6-1.28,1.34,1.34,0,0,0,1.07-1.6c-.1-.85-.16-1.7-.23-2.54a4.37,4.37,0,0,1,2.7-4.39,3,3,0,0,1,1.84-.35c1.71.37,3.38.9,5.28,1.43a6.85,6.85,0,0,1-.74,1.52c-.84,1-1.81,1.92-2.67,2.92a4.53,4.53,0,0,0-1,1.6,1.25,1.25,0,0,0,.58,1.09c1.63.66,3.31,1.2,5,1.8,1.14-4.26,3.72-6.82,8.8-5.79a14,14,0,0,1,2.37-7.1c.53-.77,1-1.56,2.13-1a2.47,2.47,0,0,1,.81,2.72c-.55,1.57-1.1,3.13-1.61,4.71a1.16,1.16,0,0,0,.75,1.64c3.8,1.39,5.59,7.8,2.06,11.76-3.09,3.47-7.56,2.76-10.84,1.44a5.52,5.52,0,0,1-.51-.24c-.71,2.08-1.42,4.13-2.12,6.18a1.56,1.56,0,0,1-1.72,1.16,43.15,43.15,0,0,1-4.85.05l1.2-1.14a11.4,11.4,0,0,1,1.43-1.27c2.46-1.55,3-3.76,2.3-6.42a8.81,8.81,0,0,0-4.36-5.57,1.93,1.93,0,0,0-1.56,0,4.33,4.33,0,0,1-3.47.16,3,3,0,0,0-3.18.7,7.92,7.92,0,0,0-2.48,8.23c.11.48.15,1,.24,1.69L90,40.07Zm24.92-4.73c3.18.24,4.53-1,5.5-2.81a5,5,0,0,0-.63-5.52,1.39,1.39,0,0,0-1.27-.26,3.9,3.9,0,0,1-3.88-.3C112,25,112,25,110,27.29a9.6,9.6,0,0,0-.64.79,3.26,3.26,0,0,0-.3,3.59C110.36,34.72,113.14,35,114.93,35.38ZM100.91,21c-1.73,0-2.79,1.56-2.78,4Z"/><path class="cls-4" d="M132.43,44.05c1.57-2.09,3.11-4.19,4.71-6.26,1.05-1.35,1-1.26-.5-2.17a18.37,18.37,0,0,1-3.57-2.83c-2.07-2.07-2.85-2-4.4.56-2.17,3.56-4.44,7.06-6.72,10.55a1.71,1.71,0,0,1-1.23.68c-1.53,0-3-.17-5-.31a10.23,10.23,0,0,1,1.73-1,5.9,5.9,0,0,0,3.14-2.69c1.66-2.63,3.26-5.3,5-7.89a16,16,0,0,1,2.61-3.12c1.89-1.68,4-1.73,6.17-.18a12.27,12.27,0,0,0,1-2.11,7.91,7.91,0,0,1,3.39-4.33c.72-.54,1.44-1.07,2.12-1.65a1.81,1.81,0,0,1,2.45-.1,2.31,2.31,0,0,1,1,2.54,10.54,10.54,0,0,1-3.47,6.08,7.19,7.19,0,0,0-1,1c-1.17,1.49-1.16,1.73,0,3.16a3.38,3.38,0,0,1,.31,4.07c-1.18,2-2.58,3.9-3.94,5.8-1,1.44-2.45.26-3.65.58Zm3.93-12.48.57.11c.86-3.12,3.88-4.92,4.7-8.08a.93.93,0,0,0-.72.28c-1.57,2.21-3.14,4.42-4.66,6.66C136.11,30.76,136.32,31.22,136.36,31.57Z"/><path class="cls-4" d="M125.21,13.69a9.23,9.23,0,0,1,9,7.14,27.56,27.56,0,0,1,.73,5.06c.12,1.39-.44,1.75-1.67,1.12a8.6,8.6,0,0,0-4.33-.75,3.14,3.14,0,0,1-2.8-2.43,91.7,91.7,0,0,1-2.31-9.13C123.61,13.78,123.87,13.68,125.21,13.69Zm7.33,10.18c-.44-2.9-3.18-6.3-5.37-6.75C127.24,20.84,128.85,23.32,132.54,23.87Z"/><path class="cls-4" d="M93.46,37.26c.08-1.92.62-2.16,1.92-1.46,2.26,1.22,4.52,2.41,5.57,5a3.76,3.76,0,0,1,.42.92,17.49,17.49,0,0,1-.06,1.91c-.74-.2-1.88-.16-2.16-.63a13.93,13.93,0,0,0-4.91-4.53C93.78,38.16,93.59,37.46,93.46,37.26Z"/><path class="cls-4" d="M72.44,39.41l-1.14-.58a6.76,6.76,0,0,1,.8-1.22,1.72,1.72,0,0,1,1-.47,11.45,11.45,0,0,1,1.74.2,9.26,9.26,0,0,1-1,1.72C73.59,39.32,73,39.28,72.44,39.41Z"/><path class="cls-4" d="M84.37,40.69c.4.49.79.86.74.93-.41.59-.91,1.12-1.38,1.67-.22-.25-.69-.63-.63-.74A15.55,15.55,0,0,1,84.37,40.69Z"/><path class="cls-4" d="M84.86,44.65l1.29-1.59.45.11c0,.44.17,1.07,0,1.27a4.74,4.74,0,0,1-1.51.61Z"/><path class="cls-4" d="M81.26,40.63l1-2.05c.29.48.73,1,.66,1.1a12.09,12.09,0,0,1-1.43,1.22Z"/><path class="cls-4" d="M103.43,111c2.88,0,5.76,0,8.64,0a4.36,4.36,0,0,1,3.34,1.48,2.08,2.08,0,0,1,.24,2.78,4,4,0,0,1-4,2c-3.35-.26-6.73-.25-10.09-.18-.69,0-1.37.78-2,1.2.48.71.81,1.77,1.47,2a38.09,38.09,0,0,0,6.3,2.16c3.43.83,6.64-.37,9.86-1.37,4.08-1.26,7.59-3.61,11.28-5.64a36.61,36.61,0,0,1,4.55-2.3,4.48,4.48,0,0,1,2.89-.09c2.09.79,2.27,2.93.47,4.26a21,21,0,0,1-2.06,1.3c-2.24,1.3-4.54,2.51-6.71,3.92A46.66,46.66,0,0,1,116,127.83c-2.2.69-4.34,1.6-6.57,2.15-3.91,1-7.69.12-11.44-1.14-3.6-1.21-7.26-2.25-10.92-3.28a16.43,16.43,0,0,0-3.37-.4c-.63,0-.84-.29-.84-.9,0-2.76-.07-5.52,0-8.27a1.45,1.45,0,0,1,.59-1.13c3.4-1.28,6.57-3.22,10.25-3.67a25.6,25.6,0,0,1,3.16-.1h6.57Z"/><path class="cls-4" d="M80,119.33v8.75c0,1.55-.39,2-1.91,2-2.35,0-4.7,0-7,0-1.7,0-2.46-.68-2.46-2.4,0-3.77.08-7.54.09-11.3,0-2.15-.08-4.3-.1-6.44,0-1.4.54-2.09,1.92-2.11,2.51,0,5,0,7.53.09a1.69,1.69,0,0,1,1.85,1.91c0,3.16,0,6.32,0,9.48Z"/></g></g></svg>